<svg width="264" height="121" xmlns="http://www.w3.org/2000/svg" xmlns:xlink="http://www.w3.org/1999/xlink" overflow="hidden"><defs><clipPath id="clip0"><rect x="327" y="320" width="264" height="121"/></clipPath></defs><g clip-path="url(#clip0)" transform="translate(-327 -320)"><path d="M533.423 433.199C536.186 431.999 550.279 434.816 563.5 430.5 576.72 425.184 583.38 415.172 578.247 401.799 572.433 389.792 561.191 389.992 548.2 378.764 517.465 350.999 553.609 317.499 583.304 331.553" stroke="#95E1D3" stroke-width="13.3333" stroke-linecap="round" stroke-miterlimit="8" fill="none" fill-rule="evenodd"/><path d="M462.254 320C490.59 348.697 512.541 377.743 534.309 409.994L554 440 523.966 440 520.434 434.995C503 409.995 476.178 370.18 459.6 354.552 444.673 366.531 418.17 390.606 399.446 420.151 389.015 410.013 391.41 411.221 379.984 402.624 371.147 414.381 364.119 421.892 356.077 435.8L353.764 440 328 440C328.772 437.239 327.332 438.485 334.739 423.706 347.599 397.922 367.707 379.762 379.418 368.808L396.35 382.594C406.544 370.62 425.358 350.34 462.254 320Z" fill="#F38181" fill-rule="evenodd"/><path d="M370 428C370 421.373 375.373 416 382 416 388.627 416 394 421.373 394 428 394 434.627 388.627 440 382 440 375.373 440 370 434.627 370 428Z" fill="#FCE38A" fill-rule="evenodd"/></g></svg>